<svg width="180" height="180" viewBox="0 0 180 180" xmlns="http://www.w3.org/2000/svg" role="img">
<title>D2 Armory icon</title>
<defs>
<linearGradient id="steel" x1="0%" y1="0%" x2="100%" y2="100%">
<stop offset="0%" stop-color="#3a4552"/>
<stop offset="100%" stop-color="#1c232b"/>
</linearGradient>
</defs>


<g transform="translate(90,90)">
<polygon points="0,-85 74,-42 74,42 0,85 -74,42 -74,-42" fill="url(#steel)" stroke="#c98a3c" stroke-width="2.5"/>
<polygon points="0,-65 57,-32 57,32 0,65 -57,32 -57,-32" fill="none" stroke="#5a6672" stroke-width="1"/>
<circle cx="0" cy="0" r="30" fill="#12161b" stroke="#c98a3c" stroke-width="2.5"/>
<circle cx="0" cy="0" r="8" fill="#c98a3c"/>
<line x1="0" y1="-30" x2="0" y2="-16" stroke="#c98a3c" stroke-width="4"/>
<line x1="0" y1="30" x2="0" y2="16" stroke="#c98a3c" stroke-width="4"/>
<line x1="-30" y1="0" x2="-16" y2="0" stroke="#c98a3c" stroke-width="4"/>
<line x1="30" y1="0" x2="16" y2="0" stroke="#c98a3c" stroke-width="4"/>
<line x1="21" y1="-21" x2="12" y2="-12" stroke="#c98a3c" stroke-width="3"/>
<line x1="-21" y1="-21" x2="-12" y2="-12" stroke="#c98a3c" stroke-width="3"/>
<line x1="21" y1="21" x2="12" y2="12" stroke="#c98a3c" stroke-width="3"/>
<line x1="-21" y1="21" x2="-12" y2="12" stroke="#c98a3c" stroke-width="3"/>
</g>

</svg>
